<svg width="189" height="33" viewBox="0 0 189 33" fill="none" xmlns="http://www.w3.org/2000/svg">
<g clip-path="url(#clip0_100_3)">
<path d="M41.9269 24.229C41.6164 24.2838 41.3017 24.3105 40.9864 24.3086C40.3154 24.3086 39.8431 24.185 39.5696 23.9376C39.2961 23.6903 39.1593 23.2748 39.1593 22.6911V8.0291C39.3004 7.99316 39.5254 7.94866 39.8344 7.8956C40.1363 7.84356 40.4422 7.81715 40.7486 7.81665C41.3837 7.81665 41.8514 7.93154 42.1519 8.16133C42.4524 8.39111 42.6019 8.81539 42.6007 9.43414V14.6576H49.2199V8.0291C49.3609 7.99316 49.5861 7.94866 49.8956 7.8956C50.1973 7.84353 50.5029 7.81712 50.8091 7.81665C51.4446 7.81665 51.9124 7.93582 52.2124 8.17417C52.5125 8.41251 52.6621 8.84042 52.6612 9.45789V24.0923C52.5022 24.1276 52.2765 24.1726 51.9855 24.2252C51.6753 24.28 51.3607 24.3066 51.0457 24.3048C50.3742 24.3048 49.902 24.1811 49.6289 23.9338C49.3558 23.6864 49.2188 23.2709 49.2179 22.6873V17.4112H42.5994V24.0962C42.4397 24.1328 42.2154 24.1764 41.9269 24.229Z" fill="#272332"/>
<path d="M67.6524 17.8386C67.6524 18.8656 67.4979 19.7894 67.1889 20.6102C66.9025 21.3969 66.4561 22.1155 65.8779 22.7206C65.3038 23.3101 64.608 23.7671 63.8392 24.0595C63.0443 24.368 62.1526 24.5227 61.164 24.5236C60.1754 24.5244 59.2839 24.3698 58.4894 24.0595C57.7228 23.7685 57.0274 23.3163 56.4501 22.7334C55.8703 22.1358 55.4235 21.422 55.1391 20.639C54.8301 19.817 54.6756 18.8844 54.6756 17.8412C54.6756 16.8168 54.8301 15.8933 55.1391 15.0709C55.425 14.2853 55.8767 13.5707 56.4636 12.9759C57.0472 12.3951 57.7461 11.9436 58.515 11.6504C59.31 11.341 60.1928 11.1863 61.1634 11.1863C62.134 11.1863 63.0167 11.341 63.8117 11.6504C64.583 11.9452 65.2825 12.4017 65.8632 12.9893C66.4478 13.5908 66.8989 14.3091 67.187 15.0972C67.4964 15.9179 67.6516 16.8317 67.6524 17.8386ZM61.164 13.8353C60.2109 13.8353 59.4606 14.1843 58.9132 14.8822C58.3657 15.5801 58.0919 16.5656 58.0919 17.8386C58.0919 19.1296 58.3612 20.1196 58.8997 20.8085C59.4382 21.4974 60.193 21.8421 61.164 21.8425C62.1346 21.8425 62.8894 21.4934 63.4283 20.795C63.9673 20.0967 64.2365 19.1112 64.2361 17.8386C64.2361 16.5664 63.9623 15.581 63.4148 14.8822C62.8674 14.1834 62.1171 13.8344 61.164 13.8353Z" fill="#272332"/>
<path d="M75.7556 24.494C75.2794 24.4977 74.8043 24.4488 74.3388 24.3483C73.9372 24.2604 73.5432 24.1409 73.1605 23.9908V28.869C73.0015 28.904 72.7897 28.9483 72.5252 29.0018C72.2293 29.0574 71.9287 29.084 71.6277 29.0814C71.0097 29.0814 70.5506 28.9665 70.2506 28.7367C69.9506 28.5069 69.801 28.1004 69.8019 27.5172V14.074C69.8019 13.65 69.8856 13.3053 70.0532 13.04C70.2207 12.7747 70.49 12.5272 70.8609 12.2974C71.3738 11.9978 72.0095 11.737 72.7682 11.5149C73.5268 11.2929 74.383 11.1825 75.337 11.1837C76.2473 11.1753 77.1536 11.3051 78.025 11.5689C78.8135 11.8074 79.5408 12.2145 80.1566 12.7621C80.755 13.3012 81.2228 13.9859 81.56 14.816C81.8972 15.6462 82.0649 16.6361 82.0632 17.7859C82.0632 18.8985 81.9045 19.8707 81.5869 20.7025C81.2694 21.5344 80.8323 22.2325 80.2759 22.7969C79.7168 23.3646 79.0377 23.7996 78.2885 24.0698C77.4759 24.3601 76.6183 24.5038 75.7556 24.494ZM75.253 21.8162C76.3121 21.8162 77.1418 21.489 77.7423 20.8348C78.3428 20.1805 78.642 19.1642 78.6398 17.7859C78.6398 16.3546 78.3308 15.3383 77.7128 14.7371C77.0948 14.1359 76.3005 13.8353 75.3299 13.8353C74.9031 13.8278 74.478 13.8905 74.0715 14.0208C73.7482 14.1284 73.4339 14.2615 73.1316 14.4187V21.2327C73.425 21.4148 73.741 21.5575 74.0715 21.657C74.4552 21.7686 74.8534 21.8223 75.253 21.8162Z" fill="#272332"/>
<path d="M30.6227 10.2684L24.108 0.779801C23.0849 -0.707392 20.7712 0.0820979 20.8468 1.88894C20.9161 3.53596 21.5309 5.27925 23.0022 7.41858C23.0028 7.41977 23.0031 7.42114 23.003 7.4225C23.0028 7.42386 23.0022 7.42514 23.0013 7.42615C23.0004 7.42715 22.9991 7.42783 22.9978 7.42808C22.9965 7.42834 22.9951 7.42816 22.9938 7.42756C22.3919 6.97826 13.3173 0.15527 2.53039 3.78821H2.51821C1.32772 4.23494 0.719971 5.20993 1.02128 6.35309C1.30015 7.41152 2.38422 8.04696 3.46189 7.86788C5.75312 7.48597 8.02705 7.30433 10.2632 7.50074C12.4993 7.69714 14.6867 8.27097 16.7234 9.27292C18.7601 10.2749 20.6051 11.6927 22.3008 13.3166C24.208 15.1415 26.5743 19.0331 26.5743 19.0331C26.713 19.2797 26.9342 19.4693 27.1989 19.5686C27.4636 19.6678 27.7549 19.6702 28.0212 19.5754C28.6623 19.3457 28.961 18.6056 28.72 17.9708C28.2173 16.6439 27.6019 15.3625 26.8807 14.1408C26.8797 14.1396 26.8791 14.1381 26.8791 14.1366C26.8791 14.135 26.8796 14.1335 26.8806 14.1323C26.8817 14.1311 26.8831 14.1303 26.8846 14.1301C26.8862 14.1299 26.8878 14.1303 26.8891 14.1312C27.6866 14.4316 28.4245 14.8058 29.2976 14.601C30.0099 14.4335 30.6349 13.9482 30.9253 13.2691C31.1356 12.7849 31.2182 12.2546 31.1652 11.7293C31.1122 11.2039 30.9254 10.7009 30.6227 10.2684Z" fill="url(#paint0_linear_100_3)"/>
<path d="M0.558032 20.7511L7.07274 30.2398C8.09591 31.7269 10.4096 30.9375 10.3339 29.1306C10.2647 27.4836 9.6499 25.7403 8.17861 23.601C8.17793 23.5998 8.17765 23.5984 8.1778 23.597C8.17795 23.5957 8.17854 23.5944 8.17947 23.5934C8.1804 23.5924 8.18162 23.5917 8.18297 23.5915C8.18431 23.5912 8.1857 23.5914 8.18694 23.592C8.78891 24.0413 17.8635 30.8643 28.6504 27.2313H28.6626C29.853 26.7846 30.4608 25.8096 30.1595 24.6665C29.8806 23.608 28.7965 22.9726 27.7189 23.1517C25.4276 23.5336 23.1537 23.7152 20.9176 23.5188C18.6815 23.3224 16.4941 22.7486 14.4574 21.7466C12.4207 20.7447 10.5756 19.3268 8.87996 17.7029C6.97273 15.8781 4.60649 11.9865 4.60649 11.9865C4.46781 11.7399 4.24659 11.5502 3.98186 11.451C3.71713 11.3518 3.42591 11.3493 3.15956 11.4441C2.51847 11.6739 2.21973 12.414 2.46078 13.0488C2.96349 14.3757 3.57883 15.657 4.30005 16.8788C4.3011 16.8799 4.30168 16.8814 4.3017 16.883C4.30171 16.8846 4.30116 16.8861 4.30013 16.8873C4.29911 16.8884 4.29769 16.8892 4.29614 16.8894C4.29459 16.8896 4.29301 16.8893 4.29172 16.8884C3.49421 16.588 2.75632 16.2138 1.88316 16.4185C1.17091 16.5861 0.545852 17.0713 0.25544 17.7504C0.0451922 18.2347 -0.0373919 18.7649 0.0155886 19.2903C0.0685691 19.8157 0.255341 20.3187 0.558032 20.7511Z" fill="url(#paint1_linear_100_3)"/>
</g>
<path d="M92.648 24C91.352 24 90.704 23.352 90.704 22.056V9.024C90.704 7.728 91.352 7.08 92.648 7.08H101.024C102 7.08 102.488 7.56 102.488 8.52C102.488 9.496 102 9.984 101.024 9.984H94.256V13.944H100.472C101.464 13.944 101.96 14.432 101.96 15.408C101.96 16.384 101.464 16.872 100.472 16.872H94.256V21.096H101.024C102 21.096 102.488 21.576 102.488 22.536C102.488 23.512 102 24 101.024 24H92.648ZM106.531 24.168C106.083 24.168 105.723 24.048 105.451 23.808C105.179 23.552 105.035 23.232 105.019 22.848C105.019 22.464 105.179 22.072 105.499 21.672L108.547 17.928L105.763 14.52C105.427 14.104 105.267 13.704 105.283 13.32C105.299 12.936 105.443 12.624 105.715 12.384C105.987 12.144 106.347 12.024 106.795 12.024C107.227 12.024 107.587 12.096 107.875 12.24C108.163 12.384 108.435 12.624 108.691 12.96L110.611 15.456L112.555 12.96C112.811 12.624 113.083 12.384 113.371 12.24C113.659 12.096 114.019 12.024 114.451 12.024C114.899 12.024 115.259 12.152 115.531 12.408C115.803 12.648 115.939 12.96 115.939 13.344C115.955 13.728 115.795 14.12 115.459 14.52L112.675 17.928L115.747 21.672C116.083 22.072 116.243 22.464 116.227 22.848C116.211 23.232 116.059 23.552 115.771 23.808C115.499 24.048 115.139 24.168 114.691 24.168C114.275 24.168 113.915 24.096 113.611 23.952C113.323 23.792 113.051 23.552 112.795 23.232L110.611 20.448L108.403 23.232C108.147 23.536 107.875 23.768 107.587 23.928C107.315 24.088 106.963 24.168 106.531 24.168ZM120.873 28.536C119.657 28.536 119.049 27.92 119.049 26.688V13.848C119.049 12.632 119.641 12.024 120.825 12.024C122.025 12.024 122.625 12.632 122.625 13.848V13.92C122.961 13.328 123.457 12.856 124.113 12.504C124.769 12.152 125.505 11.976 126.322 11.976C127.345 11.976 128.241 12.224 129.009 12.72C129.793 13.216 130.401 13.92 130.833 14.832C131.266 15.744 131.482 16.832 131.482 18.096C131.482 19.36 131.266 20.456 130.833 21.384C130.401 22.296 129.793 23.008 129.009 23.52C128.241 24.016 127.345 24.264 126.322 24.264C125.537 24.264 124.817 24.096 124.161 23.76C123.521 23.424 123.025 22.976 122.673 22.416V26.688C122.673 27.92 122.073 28.536 120.873 28.536ZM125.241 21.552C126.009 21.552 126.633 21.272 127.113 20.712C127.593 20.152 127.833 19.28 127.833 18.096C127.833 16.928 127.593 16.072 127.113 15.528C126.633 14.968 126.009 14.688 125.241 14.688C124.457 14.688 123.825 14.968 123.345 15.528C122.865 16.072 122.625 16.928 122.625 18.096C122.625 19.28 122.865 20.152 123.345 20.712C123.825 21.272 124.457 21.552 125.241 21.552ZM138.306 24.264C135.474 24.264 134.058 22.688 134.058 19.536V8.712C134.058 7.48 134.666 6.864 135.882 6.864C137.082 6.864 137.682 7.48 137.682 8.712V19.392C137.682 20.048 137.818 20.536 138.09 20.856C138.378 21.16 138.754 21.312 139.218 21.312C139.346 21.312 139.466 21.304 139.578 21.288C139.706 21.272 139.826 21.264 139.938 21.264C140.194 21.248 140.37 21.328 140.466 21.504C140.578 21.68 140.634 22.04 140.634 22.584C140.634 23.512 140.242 24.04 139.458 24.168C139.298 24.184 139.114 24.2 138.906 24.216C138.698 24.248 138.498 24.264 138.306 24.264ZM147.957 24.264C146.693 24.264 145.589 24.016 144.645 23.52C143.717 23.008 142.997 22.296 142.485 21.384C141.973 20.456 141.717 19.36 141.717 18.096C141.717 16.848 141.973 15.768 142.485 14.856C142.997 13.928 143.717 13.216 144.645 12.72C145.589 12.224 146.693 11.976 147.957 11.976C149.221 11.976 150.317 12.224 151.245 12.72C152.189 13.216 152.917 13.928 153.429 14.856C153.957 15.768 154.221 16.848 154.221 18.096C154.221 19.36 153.957 20.456 153.429 21.384C152.917 22.296 152.189 23.008 151.245 23.52C150.317 24.016 149.221 24.264 147.957 24.264ZM147.957 21.552C148.725 21.552 149.349 21.272 149.829 20.712C150.325 20.152 150.573 19.28 150.573 18.096C150.573 16.928 150.325 16.072 149.829 15.528C149.349 14.968 148.725 14.688 147.957 14.688C147.189 14.688 146.565 14.968 146.085 15.528C145.605 16.072 145.365 16.928 145.365 18.096C145.365 19.28 145.605 20.152 146.085 20.712C146.565 21.272 147.189 21.552 147.957 21.552ZM158.658 24.216C157.41 24.216 156.786 23.6 156.786 22.368V13.848C156.786 12.632 157.378 12.024 158.562 12.024C159.746 12.024 160.338 12.632 160.338 13.848V14.28C160.914 12.856 162.106 12.088 163.914 11.976C164.314 11.944 164.618 12.048 164.826 12.288C165.05 12.512 165.17 12.888 165.186 13.416C165.218 13.912 165.114 14.304 164.874 14.592C164.65 14.88 164.266 15.056 163.722 15.12L163.17 15.168C161.378 15.344 160.482 16.256 160.482 17.904V22.368C160.482 23.6 159.874 24.216 158.658 24.216ZM172.945 24.264C171.553 24.264 170.353 24.016 169.345 23.52C168.353 23.008 167.585 22.296 167.041 21.384C166.513 20.456 166.249 19.368 166.249 18.12C166.249 16.904 166.505 15.84 167.017 14.928C167.545 14 168.257 13.28 169.153 12.768C170.065 12.24 171.113 11.976 172.297 11.976C174.009 11.976 175.369 12.52 176.377 13.608C177.385 14.68 177.889 16.136 177.889 17.976C177.889 18.584 177.513 18.888 176.761 18.888H169.705C169.833 19.816 170.169 20.496 170.713 20.928C171.273 21.344 172.041 21.552 173.017 21.552C173.401 21.552 173.833 21.512 174.313 21.432C174.809 21.336 175.281 21.176 175.729 20.952C176.193 20.728 176.585 20.688 176.905 20.832C177.225 20.96 177.441 21.184 177.553 21.504C177.681 21.824 177.681 22.16 177.553 22.512C177.441 22.848 177.177 23.128 176.761 23.352C176.201 23.656 175.577 23.88 174.889 24.024C174.217 24.184 173.569 24.264 172.945 24.264ZM172.441 14.376C171.673 14.376 171.049 14.608 170.569 15.072C170.105 15.536 169.817 16.184 169.705 17.016H174.889C174.793 15.256 173.977 14.376 172.441 14.376ZM182.229 24.216C180.981 24.216 180.357 23.6 180.357 22.368V13.848C180.357 12.632 180.949 12.024 182.133 12.024C183.317 12.024 183.909 12.632 183.909 13.848V14.28C184.485 12.856 185.677 12.088 187.485 11.976C187.885 11.944 188.189 12.048 188.397 12.288C188.621 12.512 188.741 12.888 188.757 13.416C188.789 13.912 188.685 14.304 188.445 14.592C188.221 14.88 187.837 15.056 187.293 15.12L186.741 15.168C184.949 15.344 184.053 16.256 184.053 17.904V22.368C184.053 23.6 183.445 24.216 182.229 24.216Z" fill="#272332"/>
<defs>
<linearGradient id="paint0_linear_100_3" x1="32.7813" y1="28.6308" x2="-5.47101" y2="-18.423" gradientUnits="userSpaceOnUse">
<stop offset="0.15" stop-color="#B32EFF"/>
<stop offset="0.42" stop-color="#CE60D3"/>
<stop offset="0.65" stop-color="#E185B3"/>
<stop offset="0.84" stop-color="#EE9C9F"/>
<stop offset="0.96" stop-color="#F2A498"/>
</linearGradient>
<linearGradient id="paint1_linear_100_3" x1="-1.6005" y1="2.38871" x2="36.6518" y2="49.4426" gradientUnits="userSpaceOnUse">
<stop offset="0.15" stop-color="#B32EFF"/>
<stop offset="0.42" stop-color="#CE60D3"/>
<stop offset="0.65" stop-color="#E185B3"/>
<stop offset="0.84" stop-color="#EE9C9F"/>
<stop offset="0.96" stop-color="#F2A498"/>
</linearGradient>
<clipPath id="clip0_100_3">
<rect width="83" height="32" fill="white"/>
</clipPath>
</defs>
</svg>
